<svg width="22" height="22" viewBox="0 0 22 22" fill="none" xmlns="http://www.w3.org/2000/svg">
<path d="M4.07936 17.128C5.06357 16.3976 6.13574 15.8209 7.29586 15.3978C8.45597 14.9747 9.69069 14.7632 11 14.7632C12.3093 14.7632 13.544 14.9747 14.7041 15.3978C15.8643 15.8209 16.9364 16.3976 17.9206 17.128C18.6406 16.3367 19.211 15.4208 19.6319 14.3802C20.0528 13.3396 20.2632 12.2128 20.2632 11C20.2632 8.43333 19.361 6.2478 17.5566 4.4434C15.7522 2.63901 13.5667 1.73682 11 1.73682C8.43333 1.73682 6.24779 2.63901 4.4434 4.4434C2.63901 6.2478 1.73682 8.43333 1.73682 11C1.73682 12.2128 1.94725 13.3396 2.3681 14.3802C2.78896 15.4208 3.35938 16.3367 4.07936 17.128ZM11.0003 13.0263C9.94317 13.0263 9.05162 12.6634 8.32572 11.9378C7.59981 11.2121 7.23686 10.3207 7.23686 9.26349C7.23686 8.20631 7.5997 7.31477 8.32537 6.58886C9.05106 5.86295 9.94249 5.5 10.9997 5.5C12.0568 5.5 12.9484 5.86284 13.6743 6.58851C14.4002 7.3142 14.7631 8.20563 14.7631 9.26279C14.7631 10.32 14.4003 11.2115 13.6746 11.9374C12.9489 12.6633 12.0575 13.0263 11.0003 13.0263ZM11 22C9.47246 22 8.03957 21.7127 6.70133 21.1382C5.36307 20.5637 4.19887 19.7814 3.20871 18.7913C2.21857 17.8011 1.43626 16.6369 0.861765 15.2987C0.287255 13.9604 0 12.5275 0 11C0 9.47246 0.287255 8.03957 0.861765 6.70133C1.43626 5.36307 2.21857 4.19887 3.20871 3.20871C4.19887 2.21857 5.36307 1.43626 6.70133 0.861766C8.03957 0.287256 9.47246 0 11 0C12.5275 0 13.9604 0.287256 15.2987 0.861766C16.6369 1.43626 17.8011 2.21857 18.7913 3.20871C19.7814 4.19887 20.5637 5.36307 21.1382 6.70133C21.7127 8.03957 22 9.47246 22 11C22 12.5275 21.7127 13.9604 21.1382 15.2987C20.5637 16.6369 19.7814 17.8011 18.7913 18.7913C17.8011 19.7814 16.6369 20.5637 15.2987 21.1382C13.9604 21.7127 12.5275 22 11 22ZM11 20.2632C12.0451 20.2632 13.0527 20.0951 14.0228 19.7588C14.9929 19.4226 15.8543 18.9524 16.6069 18.3482C15.8543 17.7663 15.004 17.3128 14.0562 16.9877C13.1083 16.6625 12.0896 16.5 11 16.5C9.91038 16.5 8.88979 16.6607 7.93823 16.9821C6.98667 17.3035 6.13829 17.7588 5.39308 18.3482C6.14572 18.9524 7.0071 19.4226 7.97722 19.7588C8.94733 20.0951 9.95492 20.2632 11 20.2632ZM11 11.2895C11.576 11.2895 12.0577 11.0958 12.4452 10.7083C12.8326 10.3208 13.0263 9.83912 13.0263 9.26314C13.0263 8.68716 12.8326 8.20544 12.4452 7.81797C12.0577 7.43052 11.576 7.23679 11 7.23679C10.424 7.23679 9.9423 7.43052 9.55483 7.81797C9.16737 8.20544 8.97365 8.68716 8.97365 9.26314C8.97365 9.83912 9.16737 10.3208 9.55483 10.7083C9.9423 11.0958 10.424 11.2895 11 11.2895Z" fill="#121212"/>
</svg>
