<svg width="25" height="19" viewBox="0 0 25 19" fill="none" xmlns="http://www.w3.org/2000/svg">
<path d="M2.61642 19C1.98849 19 1.45094 18.7758 1.00378 18.3274C0.556598 17.879 0.333008 17.3399 0.333008 16.7102V13.2392C0.333008 13.0313 0.392524 12.847 0.511556 12.6862C0.630588 12.5254 0.789693 12.4158 0.988873 12.3574C1.54273 12.0991 1.99294 11.7157 2.33951 11.2071C2.68606 10.6984 2.85933 10.1292 2.85933 9.49949C2.85933 8.86975 2.68606 8.30072 2.33951 7.7924C1.99294 7.28411 1.54273 6.90086 0.988873 6.64264C0.789693 6.58419 0.630588 6.47458 0.511556 6.31382C0.392524 6.15303 0.333008 5.96871 0.333008 5.76085V2.28976C0.333008 1.66008 0.556598 1.12104 1.00378 0.672635C1.45094 0.224212 1.98849 0 2.61642 0H22.0496C22.6775 0 23.2151 0.224212 23.6622 0.672635C24.1094 1.12104 24.333 1.66008 24.333 2.28976V5.76085C24.333 5.96871 24.2735 6.15303 24.1545 6.31382C24.0354 6.47458 23.8763 6.58419 23.6771 6.64264C23.1233 6.90086 22.6731 7.28429 22.3265 7.79294C21.98 8.30157 21.8067 8.87076 21.8067 9.50051C21.8067 10.1303 21.98 10.6993 22.3265 11.2076C22.6731 11.7159 23.1233 12.0991 23.6771 12.3574C23.8763 12.4158 24.0354 12.5254 24.1545 12.6862C24.2735 12.847 24.333 13.0313 24.333 13.2392V16.7102C24.333 17.3399 24.1094 17.879 23.6622 18.3274C23.2151 18.7758 22.6775 19 22.0496 19H2.61642ZM2.61642 17.1H22.0496C22.163 17.1 22.2561 17.0635 22.329 16.9904C22.4019 16.9173 22.4383 16.8239 22.4383 16.7102V13.87C21.6593 13.4056 21.0436 12.7881 20.5909 12.0175C20.1383 11.247 19.912 10.4078 19.912 9.5C19.912 8.59222 20.1383 7.75305 20.5909 6.98249C21.0436 6.21193 21.6593 5.59443 22.4383 5.12999V2.28976C22.4383 2.17608 22.4019 2.08269 22.329 2.0096C22.2561 1.93652 22.163 1.89998 22.0496 1.89998H2.61642C2.50306 1.89998 2.40993 1.93652 2.33704 2.0096C2.26416 2.08269 2.22772 2.17608 2.22772 2.28976V5.12999C3.00667 5.59443 3.62246 6.21193 4.07509 6.98249C4.52772 7.75305 4.75404 8.59222 4.75404 9.5C4.75404 10.4078 4.52772 11.247 4.07509 12.0175C3.62246 12.7881 3.00667 13.4056 2.22772 13.87V16.7102C2.22772 16.8239 2.26416 16.9173 2.33704 16.9904C2.40993 17.0635 2.50306 17.1 2.61642 17.1ZM12.3334 15.3949C12.602 15.3949 12.8269 15.3038 13.0083 15.1216C13.1897 14.9395 13.2803 14.7137 13.2803 14.4445C13.2803 14.1752 13.1895 13.9496 13.0079 13.7677C12.8262 13.5858 12.6011 13.4949 12.3326 13.4949C12.064 13.4949 11.8391 13.586 11.6577 13.7681C11.4764 13.9503 11.3857 14.176 11.3857 14.4453C11.3857 14.7146 11.4765 14.9402 11.6581 15.1221C11.8398 15.3039 12.0649 15.3949 12.3334 15.3949ZM12.3334 10.45C12.602 10.45 12.8269 10.3589 13.0083 10.1768C13.1897 9.99458 13.2803 9.76886 13.2803 9.49959C13.2803 9.23029 13.1895 9.00471 13.0079 8.82284C12.8262 8.64097 12.6011 8.55003 12.3326 8.55003C12.064 8.55003 11.8391 8.6411 11.6577 8.82325C11.4764 9.00542 11.3857 9.23114 11.3857 9.50041C11.3857 9.76971 11.4765 9.99529 11.6581 10.1772C11.8398 10.359 12.0649 10.45 12.3334 10.45ZM12.3334 5.50511C12.602 5.50511 12.8269 5.41403 13.0083 5.23186C13.1897 5.04969 13.2803 4.82397 13.2803 4.5547C13.2803 4.28542 13.1895 4.05984 13.0079 3.87794C12.8262 3.69607 12.6011 3.60514 12.3326 3.60514C12.064 3.60514 11.8391 3.69622 11.6577 3.87839C11.4764 4.06054 11.3857 4.28626 11.3857 4.55555C11.3857 4.82482 11.4765 5.05041 11.6581 5.2323C11.8398 5.41417 12.0649 5.50511 12.3334 5.50511Z" fill="#121212"/>
</svg>
