<svg width="20" height="22" viewBox="0 0 20 22" fill="none" xmlns="http://www.w3.org/2000/svg">
<path d="M1.99997 19.993H6.46155V13.2514C6.46155 12.9088 6.57704 12.6216 6.80802 12.3898C7.039 12.158 7.32522 12.0421 7.66669 12.0421H12.3333C12.6748 12.0421 12.961 12.158 13.192 12.3898C13.423 12.6216 13.5384 12.9088 13.5384 13.2514V19.993H18V8.15671C18 8.0881 17.9851 8.02591 17.9552 7.97016C17.9252 7.91441 17.8846 7.86509 17.8334 7.82221L10.2436 2.09704C10.1752 2.03701 10.094 2.00699 10 2.00699C9.90598 2.00699 9.82478 2.03701 9.7564 2.09704L2.16664 7.82221C2.11537 7.86509 2.07477 7.91441 2.04484 7.97016C2.01493 8.02591 1.99997 8.0881 1.99997 8.15671V19.993ZM0 19.993V8.15671C0 7.77375 0.0853669 7.41095 0.256101 7.06831C0.426835 6.72566 0.662835 6.44349 0.964103 6.22178L8.55386 0.483759C8.97504 0.161252 9.4564 0 9.99793 0C10.5395 0 11.0222 0.161252 11.4461 0.483759L19.0359 6.22178C19.3372 6.44349 19.5732 6.72566 19.7439 7.06831C19.9146 7.41095 20 7.77375 20 8.15671V19.993C20 20.5402 19.803 21.0115 19.409 21.4069C19.015 21.8023 18.5453 22 18 22H12.7436C12.4022 22 12.1159 21.8841 11.8849 21.6523C11.654 21.4205 11.5385 21.1333 11.5385 20.7906V14.0491H8.46153V20.7906C8.46153 21.1333 8.34604 21.4205 8.11506 21.6523C7.88406 21.8841 7.59784 22 7.25639 22H1.99997C1.45468 22 0.985036 21.8023 0.591035 21.4069C0.197011 21.0115 0 20.5402 0 19.993Z" fill="url(#paint0_linear_683_86)"/>
<defs>
<linearGradient id="paint0_linear_683_86" x1="2.50199" y1="30.4344" x2="30.8616" y2="18.9021" gradientUnits="userSpaceOnUse">
<stop stop-color="#E42B2B"/>
<stop offset="0.17" stop-color="#E42F2C"/>
<stop offset="0.35" stop-color="#E73B32"/>
<stop offset="0.53" stop-color="#EB503C"/>
<stop offset="0.71" stop-color="#F06D4A"/>
<stop offset="0.8" stop-color="#F47E52"/>
</linearGradient>
</defs>
</svg>
