<svg width="23" height="22" viewBox="0 0 23 22" fill="none" xmlns="http://www.w3.org/2000/svg">
<path d="M21.9927 21.3257C21.6203 21.6981 21.0166 21.6981 20.6442 21.3257L13.2813 13.9628C12.6415 14.4911 11.9057 14.9045 11.0739 15.2031C10.2421 15.5017 9.38166 15.651 8.49248 15.651C6.30535 15.651 4.45432 14.8937 2.93939 13.3792C1.42446 11.8646 0.666992 10.0141 0.666992 7.8275C0.666992 5.64093 1.42427 3.78969 2.93881 2.2738C4.45336 0.757934 6.30392 0 8.49049 0C10.677 0 12.5283 0.757467 14.0442 2.2724C15.5601 3.78733 16.318 5.63836 16.318 7.82549C16.318 8.73928 16.1646 9.61206 15.8578 10.4438C15.551 11.2756 15.1417 11.9991 14.6298 12.6143L21.9927 19.9772C22.3651 20.3496 22.3651 20.9534 21.9927 21.3257ZM8.49248 13.7316C10.1413 13.7316 11.5378 13.1594 12.6821 12.0151C13.8264 10.8708 14.3986 9.47427 14.3986 7.82549C14.3986 6.1767 13.8264 4.78016 12.6821 3.63586C11.5378 2.49156 10.1413 1.91941 8.49248 1.91941C6.8437 1.91941 5.44715 2.49156 4.30285 3.63586C3.15857 4.78016 2.58643 6.1767 2.58643 7.82549C2.58643 9.47427 3.15857 10.8708 4.30285 12.0151C5.44715 13.1594 6.8437 13.7316 8.49248 13.7316Z" fill="#121212"/>
</svg>
